#!OML:ASF F:\twosubjects\two\Thursday\Session 1\Rory.ASF
:FULLY-SPECIFIED
:DEGREES
286
root 7.59838 10.1433 12.8111 147.78 -10.5028 186.191
lowerback 36.5517 6.9887 -1.16001
upperback 15.8638 2.80882 -2.47473
thorax -0.727299 -0.919442 -2.84751
lowerneck -9.22385 -10.2381 -10.9842
upperneck -9.13053 -13.3806 19.0839
head 0.967597 -7.06157 6.89585
rclavicle -2.54444e-014 6.20208e-014
rhumerus -6.28529 25.4177 -70.7473
rradius 67.7484
rwrist 11.6697
rhand -33.4775 39.3649
rfingers 7.12502
rthumb -6.67515 9.49015
lclavicle -2.54444e-014 6.20208e-014
lhumerus 1.2467 -29.9784 49.6277
lradius 88.0178
lwrist -9.07287
lhand -13.1698 17.1704
lfingers 7.12502
lthumb 12.9295 46.7498
rfemur -52.4758 -9.09283 -3.3119
rtibia 83.9438
rfoot 11.2252 -2.09835
rtoes -13.6267
lfemur -57.7416 25.2619 5.12708
ltibia 79.0281
lfoot 17.039 -1.55529
ltoes 27.8175
287
root 7.59616 10.1585 12.8081 148.06 -10.2407 186.715
lowerback 36.4557 6.70491 -0.617823
upperback 15.7529 2.71173 -2.37495
thorax -0.797371 -0.910004 -2.98952
lowerneck -9.20907 -10.1429 -10.8757
upperneck -9.69763 -13.2528 18.9496
head 0.7611 -7.04197 6.87379
rclavicle -1.20066e-013 -9.54166e-015
rhumerus -6.39307 25.5994 -70.5929
rradius 68.3754
rwrist 11.5062
rhand -33.4993 40.4531
rfingers 7.12502
rthumb -6.69623 10.579
lclavicle -1.20066e-013 -9.54166e-015
lhumerus 0.491988 -29.6797 49.7949
lradius 88.6545
lwrist -9.13811
lhand -13.4559 17.2295
lfingers 7.12502
lthumb 12.6537 46.8262
rfemur -52.8696 -8.8352 -2.75048
rtibia 83.9623
rfoot 11.6912 -2.28383
rtoes -13.188
lfemur -58.1808 25.3757 5.67821
ltibia 79.0395
lfoot 17.0195 -1.86545
ltoes 24.7425
288
root 7.59304 10.1677 12.8031 148.263 -10.0149 187.169
lowerback 36.5352 6.46139 -0.064817
upperback 15.7377 2.59189 -2.34734
thorax -0.817703 -0.935483 -3.2107
lowerneck -9.41888 -9.95293 -10.8773
upperneck -10.4187 -12.9971 19.2018
head 0.57113 -6.97523 6.99338
rclavicle 6.36111e-015 9.85972e-014
rhumerus -6.30591 25.5994 -70.5102
rradius 68.9299
rwrist 11.6106
rhand -33.5639 41.0391
rfingers 7.12502
rthumb -6.75859 11.1669
lclavicle 6.36111e-015 9.85972e-014
lhumerus -0.113796 -29.2832 49.7755
lradius 89.3463
lwrist -8.97541
lhand -13.8283 17.2154
lfingers 7.12502
lthumb 12.2946 46.8339
rfemur -53.2939 -8.54045 -2.3494
rtibia 83.9795
rfoot 12.2372 -2.36838
rtoes -13.183
lfemur -58.5735 25.4584 6.16233
ltibia 79.0295
lfoot 17.2681 -2.59962
ltoes 19.0378
289
root 7.59313 10.1824 12.8055 148.362 -9.9687 187.378
lowerback 36.8159 6.27533 0.207086
upperback 15.7803 2.3923 -2.33392
thorax -0.859188 -1.03798 -3.27837
lowerneck -9.89347 -9.89638 -11.2534
upperneck -10.6001 -12.8872 19.6516
head 0.644162 -6.92669 7.18384
rclavicle 1.74931e-014 5.40694e-014
rhumerus -6.11718 25.7904 -70.3111
rradius 69.5365
rwrist 11.4096
rhand -33.0389 41.0464
rfingers 7.12502
rthumb -6.25178 11.1586
lclavicle 1.74931e-014 5.40694e-014
lhumerus -0.795588 -28.6671 49.951
lradius 90.0732
lwrist -8.58601
lhand -14.3017 17.1493
lfingers 7.12502
lthumb 11.8382 46.7947
rfemur -53.6077 -8.15366 -2.34266
rtibia 83.9733
rfoot 12.8628 -2.43596
rtoes -12.8372
lfemur -58.8061 25.3551 6.40689
ltibia 78.9669
lfoot 17.7262 -1.90404
ltoes 17.8398
290
root 7.59521 10.2042 12.8097 148.589 -10.1172 187.206
lowerback 37.0058 6.31295 0.0124778
upperback 15.7688 2.35352 -2.28761
thorax -0.946424 -1.0768 -3.11763
lowerneck -10.1707 -10.0435 -11.3161
upperneck -10.6416 -13.0747 19.6393
head 0.705267 -7.01608 7.15831
rclavicle 3.89618e-014 1.20861e-013
rhumerus -6.4522 25.5646 -70.2529
rradius 70.5999
rwrist 10.9224
rhand -32.055 41.2264
rfingers 7.12502
rthumb -5.30185 11.3127
lclavicle 3.89618e-014 1.20861e-013
lhumerus -1.43903 -28.2648 50.3763
lradius 90.8502
lwrist -8.14233
lhand -14.2776 16.7838
lfingers 7.12502
lthumb 11.8614 46.4278
rfemur -53.9922 -8.00076 -2.77933
rtibia 83.9695
rfoot 13.755 -2.30213
rtoes -9.96908
lfemur -59.0818 25.2178 6.27294
ltibia 78.8885
lfoot 18.1666 -0.277354
ltoes 20.8847
291
root 7.59984 10.2209 12.8077 149.029 -10.4152 186.557
lowerback 37.0536 6.46686 -0.734549
upperback 15.7382 2.27744 -2.37877
thorax -1.03208 -1.15325 -2.80044
lowerneck -9.39994 -9.88172 -11.2377
upperneck -12.3705 -12.885 19.8816
head 0.0702317 -7.08869 7.3509
rclavicle 2.46493e-014 -4.29375e-014
rhumerus -6.86148 25.3088 -70.292
rradius 71.909
rwrist 10.171
rhand -31.2363 40.896
rfingers 7.12502
rthumb -4.51136 10.9641
lclavicle 2.46493e-014 -4.29375e-014
lhumerus -2.17867 -27.777 50.7684
lradius 91.7263
lwrist -7.74571
lhand -13.8659 16.4318
lfingers 7.12502
lthumb 12.2584 46.0525
rfemur -54.6222 -8.14728 -3.67888
rtibia 83.9651
rfoot 15.0275 -1.38177
rtoes -8.51826
lfemur -59.4616 25.1224 5.58555
ltibia 78.7707
lfoot 18.8058 0.485542
ltoes 20.4251
